<svg xmlns="http://www.w3.org/2000/svg" width="166.84" height="200" viewBox="0 0 166.84 200" xml:space="preserve">
  <path fill="#231F20" d="M97.631.735c-40.224 0-54.418 62.313-67.641 112.438-4.783-4.82-19.502-19.458-19.517-19.433-2.96-2.924-6.36-1.973-8.443.053-2.096 2.105-2.402 5.965 0 8.306.121.104 19.944 19.814 26.795 26.645 1.89 1.834 4.625 2.914 7.358 1.322 2.832-1.738 3.22-4.809 3.297-4.809C62.965 20.336 83.953 12.512 97.576 12.512c11.46 0 24.667 8.44 24.667 25.321 17.09 0 27.801 22.391 14.047 36.174 11.404 5.501 16.49 12.266 16.49 20.826 0 8.57-7.197 17.318-17.701 17.294-10.416 0-15.709-6.674-23.824-6.703-3.68 0-5.912 2.965-5.912 5.889v21.182H90.021v-21.104c-.042-3.307-2.484-5.908-5.525-5.908-.049 0-1.311.037-1.292.08l-20.521 2.521c-2.475.373-4.761 3.053-4.761 5.82 0 3.244 2.666 5.938 6.302 5.893.463 0 1.085 0 1.024-.053-.037 0 12.99-1.65 12.99-1.65v20.908c0 2.645 3.009 5.24 5.713 5.24h27.261c3.17 0 5.924-2.729 5.924-5.932v-19.094c5.705 3.469 13.639 4.814 17.709 4.814 15.293 0 29.879-11.984 29.836-29.564-.059-15.934-12.293-23.893-12.293-23.893 7.18-19.063-4.432-37.465-19.471-42.583C127.495 8.327 110.651.735 97.631.735"/>
  <path fill="#231F20" d="M97.631.735c-40.224 0-54.418 62.313-67.641 112.438-4.783-4.82-19.502-19.458-19.517-19.433-2.96-2.924-6.36-1.973-8.443.053-2.096 2.105-2.402 5.965 0 8.306.121.104 19.944 19.814 26.795 26.645 1.89 1.834 4.625 2.914 7.358 1.322 2.832-1.738 3.22-4.809 3.297-4.809C62.965 20.336 83.953 12.512 97.576 12.512c11.46 0 24.667 8.44 24.667 25.321 17.09 0 27.801 22.391 14.047 36.174 11.404 5.501 16.49 12.266 16.49 20.826 0 8.57-7.197 17.318-17.701 17.294-10.416 0-15.709-6.674-23.824-6.703-3.68 0-5.912 2.965-5.912 5.889v21.182H90.021v-21.104c-.042-3.307-2.484-5.908-5.525-5.908-.049 0-1.311.037-1.292.08l-20.521 2.521c-2.475.373-4.761 3.053-4.761 5.82 0 3.244 2.666 5.938 6.302 5.893.463 0 1.085 0 1.024-.053-.037 0 12.99-1.65 12.99-1.65v20.908c0 2.645 3.009 5.24 5.713 5.24h27.261c3.17 0 5.924-2.729 5.924-5.932v-19.094c5.705 3.469 13.639 4.814 17.709 4.814 15.293 0 29.879-11.984 29.836-29.564-.059-15.934-12.293-23.893-12.293-23.893 7.18-19.063-4.432-37.465-19.471-42.583C127.495 8.327 110.651.735 97.631.735M80.462 167.559c0 4.926 5.513 7.898 14.597 12.205 7.205 3.359 11.348 6.92 11.348 9.783 0 4.627-4.988 6.266-9.665 6.266-7.235 0-11.506-2.875-13.875-9.328l-.207-.545h-.584c-1.271 0-2.284.059-2.848.744-.503.662-.361 1.529-.155 2.373-.016-.02 1.598 6.617 1.598 6.617.431 1.613 1.014 1.875 3.598 2.383 1.134.195 6.984 1.207 11.94 1.207 13.823 0 19.993-5.598 19.993-11.154 0-4.045-4.016-7.91-12.682-12.227l-3.937-1.893c-5.929-2.816-9.52-4.49-9.52-7.461 0-2.877 3.718-4.879 9.024-4.879 6.928 0 8.777 3.859 9.625 7.219l.15.631h.656c1.541 0 2.514-.127 3.084-.746.332-.352.467-.838.387-1.406l-.541-5.732c-.152-1.846-1.557-2.111-3.51-2.506-2.324-.412-5.102-.916-9.299-.916-12.01-.001-19.177 3.507-19.177 9.365m39.814 11.603c0 9.979 8.68 20.102 25.307 20.102 8.377 0 13.084-1.916 16.598-3.777l.947-.498-1.533-1.711.084.086c-.371-.51-.66-.613-1.223-.613l-.807.279c-1.26.582-5.104 2.359-12.08 2.359-8.598 0-17.848-5.588-17.848-17.895 0-11.707 10.041-15.844 18.598-15.844 6.168 0 9.447 2.191 10.057 6.732l.07.742h.766c.734 0 2.682 0 2.682-1.457v-6.822c0-1.682-1.932-1.912-2.738-2.033l-.805-.115c-1.971-.256-3.863-.504-8.867-.504-16.93 0-29.208 8.821-29.208 20.969m-62.624-20.476-14.97.121-9.975-.164-1.517-.035c-.889 0-1.528.637-1.528 1.559 0 .424 0 1.766 1.652 1.766 6.029 0 6.251.484 6.306 2.789l.058 1.451.094 6.15v13.229c0 2.189-.079 5.678-.222 8.49-.04.814-.081 1.578-5.404 1.578-1.51 0-2.402.303-2.402 1.76 0 .436 0 1.559 1.447 1.559h.334c.636-.031 2.323-.109 10.654-.109 8.874 0 10.654.092 11.258.109h.312c1.165 0 2.178-.109 2.178-1.559 0-1.625-1.346-1.76-3.597-1.76-5.347 0-5.39-.764-5.429-1.561-.127-2.582-.236-6.07-.236-8.508v-4.775h4.486c6.863 0 7.624.195 8.607 5.465.282 1.148 1.2 1.293 1.965 1.293 1.614 0 1.79-.879 1.79-1.271l-.136-1.979a42 42 0 0 1-.225-4.453v-8.109c0-1.215-1.468-1.215-2.251-1.215-1.294 0-1.595.82-2.417 4.654-.379 1.455-3.212 2.299-7.773 2.299h-4.046v-11.908c0-3.244.574-3.268 1.289-3.279 2.626-.121 8.986-.34 10.898-.34 1.819 0 3.493.416 4.561 1.121 3.403 2.098 5.141 3.529 6.196 4.391 1.032.824 1.61 1.311 2.448 1.311.498 0 1.941 0 1.941-1.248 0-.305-.137-.584-.601-1.615-.549-1.225-1.483-3.232-2.666-6.318-.343-.984-1.465-.984-3.564-.984zm94.921-145.892h2.115c.967 0 1.637-.158 2.027-.431.373-.279.564-.676.564-1.197 0-.492-.191-.889-.543-1.171-.357-.273-1.082-.428-2.178-.428h-1.986v3.227zm7.305 6.023h-2.127c-1.33-2.417-2.217-3.773-2.611-4.091-.414-.304-.916-.452-1.537-.452h-1.029v4.543h-1.738V8.123h3.725c1.109 0 1.947.08 2.555.252.598.139 1.086.473 1.459.989.375.497.57 1.067.57 1.652 0 .731-.266 1.386-.807 1.987-.525.601-1.277.935-2.27 1.013v.03c.631.158 1.477 1.053 2.49 2.691zm-4.678 2.806c2.291 0 4.242-.8 5.871-2.432 1.629-1.635 2.461-3.585 2.475-5.89 0-2.284-.82-4.24-2.451-5.854-1.637-1.614-3.604-2.441-5.895-2.441-2.293 0-4.266.813-5.877 2.426-1.627 1.628-2.434 3.584-2.447 5.868 0 2.29.82 4.255 2.432 5.875 1.627 1.628 3.584 2.448 5.892 2.448m.041-18.261q4.075 0 7.01 2.899c1.973 1.956 2.949 4.304 2.949 7.039q-.002 4.114-2.924 7.036c-1.953 1.941-4.297 2.923-7.035 2.923-2.76 0-5.127-.958-7.07-2.898-1.973-1.956-2.949-4.305-2.949-7.061 0-2.735.977-5.068 2.949-7.024 1.943-1.947 4.31-2.914 7.07-2.914"/>
  <path fill="#231F20" d="M155.243 23.782c-2.912 0-5.416-1.029-7.449-3.063-2.057-2.035-3.092-4.528-3.092-7.418 0-2.869 1.035-5.356 3.092-7.388 2.047-2.044 4.553-3.088 7.449-3.088 2.838 0 5.332 1.038 7.391 3.069 2.061 2.035 3.092 4.521 3.092 7.406 0 2.875-1.025 5.362-3.078 7.395-2.04 2.05-4.54 3.087-7.405 3.087m0-19.899c-2.6 0-4.857.929-6.703 2.775-1.875 1.862-2.795 4.031-2.795 6.642 0 2.632.92 4.816 2.795 6.67 1.824 1.825 4.09 2.759 6.703 2.759 2.611 0 4.797-.904 6.662-2.775 1.836-1.838 2.771-4.067 2.771-6.654s-.941-4.833-2.785-6.663c-1.851-1.831-4.093-2.754-6.648-2.754"/>
  <path fill="#231F20" d="M155.206 22.154c-2.42 0-4.527-.874-6.266-2.603-1.723-1.723-2.598-3.828-2.598-6.251.021-2.442.898-4.537 2.613-6.245 1.707-1.704 3.809-2.578 6.25-2.578 2.418 0 4.525.874 6.262 2.592 1.736 1.708 2.611 3.813 2.611 6.23-.014 2.43-.898 4.534-2.635 6.266-1.712 1.724-3.819 2.589-6.237 2.589m0-16.624c-2.148 0-3.996.771-5.498 2.275-1.543 1.528-2.283 3.32-2.301 5.501 0 2.129.766 3.983 2.283 5.496 1.549 1.543 3.354 2.299 5.516 2.299 2.164 0 3.955-.75 5.498-2.29 1.541-1.538 2.299-3.345 2.324-5.52 0-2.151-.762-3.943-2.299-5.478-1.533-1.512-3.394-2.283-5.523-2.283"/>
  <path fill="#231F20" d="M160.835 19.338h-3.391l-.152-.273c-1.826-3.312-2.379-3.857-2.475-3.933-.301-.212-.707-.336-1.209-.336h-.51v4.542h-2.791V7.596h4.252c1.213 0 2.068.084 2.697.254.707.183 1.301.58 1.75 1.195.439.598.66 1.261.66 1.962 0 .874-.318 1.663-.943 2.348a3.34 3.34 0 0 1-1.359.925c.502.485 1.041 1.201 1.652 2.175zm-2.772-1.052h.852l-.801-1.27c-1.301-2.102-1.99-2.409-2.162-2.445l-.283-.063c.512.552 1.303 1.816 2.394 3.778m-6.703 0h.686v-4.543h1.563c.721 0 1.352.188 1.848.555a.6.6 0 0 1 .086.069v-.803l.486-.085c.855-.063 1.477-.336 1.906-.828.465-.506.684-1.034.684-1.644 0-.466-.16-.928-.465-1.34s-.689-.67-1.168-.785c-.539-.164-1.322-.233-2.426-.233h-3.199v9.637z"/>
  <path fill="#231F20" d="M154.694 13.315h-2.645V9.037h2.514c1.213 0 2.025.179 2.498.545.494.382.75.935.75 1.584 0 .685-.264 1.231-.773 1.62-.502.365-1.271.529-2.344.529m-1.591-1.051h1.592c1.043 0 1.514-.188 1.723-.337.229-.179.344-.412.344-.761a.95.95 0 0 0-.344-.759c-.1-.069-.52-.318-1.854-.318h-1.461z"/>
</svg>
