<svg xmlns="http://www.w3.org/2000/svg" viewBox="0 0 24 24"><path d="M6.852 0.016032C6.012864 0.085536 5.1916080000000004 0.319824 4.426584 0.7079759999999999C3.67128 1.091208 3.1234800000000003 1.523856 2.217288 2.452896C1.7427599999999999 2.9394 1.692 3.032784 1.692 3.4194960000000005C1.692 3.6671760000000004 1.6968720000000002 3.694296 1.768632 3.8457840000000005C1.8663840000000003 4.052112 2.030952 4.216896 2.244168 4.32192C2.432376 4.414632 2.272128 4.406472 3.6 4.391136C4.344384 4.382544 4.688688 4.43184 5.353104 4.6422479999999995C5.691576 4.7494320000000005 5.791272 4.803432 5.957592 4.969752000000001C6.2787120000000005 5.290872 6.361104 5.750208000000001 6.174696 6.18C6.116808 6.313416000000001 5.891424 6.545159999999999 3.10524 9.336C0.761904 11.683248 0.087552 12.371832000000001 0.049656 12.456C-0.14704799999999998 12.893088 0.30108 13.323096000000001 0.732 13.110743999999999C0.7716 13.091232 2.0433120000000002 11.837088 3.558024 10.323744L6.312048000000001 7.57224 7.368 8.628L8.423952 9.683736 4.248888 13.85988C1.275528 16.833984 0.063216 18.061680000000003 0.036912 18.125232C-0.055392 18.348336 0.022368000000000002 18.60024 0.22608 18.738C0.324 18.804216 0.36288 18.816 0.48348 18.816C0.561624 18.816 0.665688 18.799368 0.7147680000000001 18.779040000000002C0.778272 18.752736000000002 2.0882400000000003 17.459424000000002 5.256 14.295504C9.941856000000001 9.615336000000001 9.761856000000002 9.787368 10.096968 9.669024C10.38096 9.568728 10.859568000000001 9.585936 11.148935999999999 9.706848C11.231256 9.74124 11.232887999999999 9.744336 11.197224 9.798767999999999C11.1438 9.880296 11.126664 10.051944 11.159544 10.17624C11.18532 10.273632 11.296992000000001 10.393368 12.32004 11.42064C13.081536 12.185256 13.483416 12.571944 13.548 12.602112C13.672920000000001 12.660456 13.833072000000001 12.659040000000001 13.968 12.598416C14.051784 12.560784 14.561256000000002 12.064632 16.240944000000002 10.384944C18.52584 8.100071999999999 18.502944 8.125128 18.502944 7.908C18.502944 7.700880000000001 18.462504 7.6530000000000005 17.320824 6.508368000000001C16.72416 5.910144 16.192800000000002 5.395248 16.14 5.3641440000000005C15.961680000000001 5.259072 15.754848 5.265744000000001 15.59184 5.3818079999999995L15.523224 5.4306719999999995 15.14784 5.061336000000001C14.941368 4.8582 14.059536 3.984 13.188216 3.1186320000000003C11.420592000000001 1.363128 11.299104 1.257192 10.57764 0.841992C9.817896000000001 0.40475999999999995 8.890751999999999 0.11301599999999999 7.98 0.024551999999999997C7.757304 0.002928 7.072656 -0.002256 6.852 0.016032M6.7146 1.04436C5.987232 1.1324159999999999 5.27112 1.3735199999999999 4.605696 1.7544C4.1634 2.007552 3.8718 2.245584 3.2640000000000002 2.849568L2.7 3.4100400000000004 3.012 3.3910080000000002C3.46212 3.363576 4.124232 3.370032 4.416 3.404712C5.141088 3.490872 5.945784000000001 3.7290240000000003 6.319392 3.968016C6.61536 4.157352 6.91788 4.498272 7.069344 4.8132C7.220568000000001 5.1276 7.274544 5.370432 7.275023999999999 5.738688C7.275456 6.051672 7.213512 6.3328560000000005 7.082664 6.612096L6.98988 6.810072 8.087159999999999 7.907159999999999L9.184416 9.004224 9.302208 8.931887999999999C9.464496 8.832216 9.797903999999999 8.701080000000001 10.023672000000001 8.648159999999999C10.300343999999999 8.583288 10.908792 8.589048 11.164752 8.658936C11.399568 8.723064 11.66544 8.829528 11.822664 8.922384000000001L11.945328 8.994816 13.372008000000001 7.563408L14.798712000000002 6.132000000000001 12.913344 4.257984C11.872584 3.2234640000000003 10.925856000000001 2.302728 10.8 2.202624C9.981696 1.5517440000000002 8.990136 1.146984 7.932 1.03188C7.639463999999999 1.00008 7.028808000000001 1.00632 6.7146 1.04436M14.111952000000002 8.268048L12.34812 10.032 13.050072000000002 10.733976L13.752024 11.435928 15.516072000000001 9.67188L17.280144 7.907832 16.577952 7.205952L15.875784 6.5040960000000005 14.111952000000002 8.268048M19.232328 17.017752C18.786072 17.094192 18.351192 17.426351999999998 18.145751999999998 17.84772C17.9448 18.259872 17.955144 18.791208 18.172248 19.207536C18.281184 19.41648 18.611304 19.741056 18.816 19.840488C19.097231999999998 19.97712 19.20192 19.992 19.881456 19.992L20.496 19.992 20.496 21.792768000000002C20.496 23.366496 20.500704000000002 23.604792 20.533272 23.682768000000003C20.70756 24.100032000000002 21.29244 24.100032000000002 21.466728 23.682768000000003C21.499296 23.604792 21.504 23.366496 21.504 21.792768000000002L21.504 19.992 22.118544 19.992C22.79808 19.992 22.902768000000002 19.97712 23.184 19.840488C23.388696 19.741056 23.718816 19.41648 23.827752 19.207536C24.262728 18.373368 23.84748 17.363184 22.944 17.057472C22.789536 17.0052 22.771224 17.004648000000003 21.072 17.00064C20.1282 16.998408 19.300344000000003 17.006111999999998 19.232328 17.017752M19.335288 18.03516C19.07772 18.126984 18.939816 18.438384 19.045152 18.690432C19.092672 18.804192 19.163496000000002 18.87948 19.284 18.944328C19.379568 18.99576 19.387439999999998 18.996 21 18.996C22.612560000000002 18.996 22.620432 18.99576 22.716 18.944328C22.895304 18.847824 22.992456 18.69072 22.991471999999998 18.498768000000002C22.990416 18.292728 22.830984 18.078864 22.638648 18.02544C22.579512 18.009024 22.005768 18.000576 20.988 18.001176C19.725936 18.001920000000002 19.410287999999998 18.008424 19.335288 18.03516" stroke="none" fill="currentColor" fill-rule="evenodd" stroke-width="0.024"></path></svg>