<svg xmlns="http://www.w3.org/2000/svg" viewBox="0 0 24 24"><path d="M22.088160000000002 2.539032C22.020048 2.5632960000000002 21.841848 2.65392 21.69216 2.7403920000000004C19.864752 3.79608 17.91108 4.392816 15.815328 4.535424C15.623567999999999 4.5484800000000005 15.002568 4.558896 14.435328 4.55856C13.239456 4.557888 12.663264 4.587359999999999 11.796 4.693608C9.902327999999999 4.925568 8.229000000000001 5.43756 6.806064 6.220416000000001C6.541872 6.365760000000001 5.89092 6.7975200000000005 5.720496000000001 6.940440000000001C5.652576 6.997392 5.463576 7.151208 5.300496000000001 7.282224C4.715712 7.752096000000001 4.049016 8.474496 3.6487680000000005 9.072000000000001C2.7493200000000004 10.414704 2.2800960000000003 11.949816 2.280024 13.550136000000002C2.279976 14.5362 2.445576 15.439032000000001 2.8008480000000002 16.389696C2.910216 16.682328 2.9113200000000004 16.68804 2.865024 16.725696C2.839128 16.746768000000003 2.2763999999999998 17.22624 1.6145280000000002 17.7912C0.307176 18.907128 0.312 18.902112 0.312 19.143792C0.312 19.309968 0.392088 19.455288 0.53808 19.554000000000002C0.63636 19.620456 0.674664 19.632 0.7970880000000001 19.632C0.876096 19.632 0.975312 19.615608 1.017552 19.595544C1.059792 19.575504 1.591296 19.135416 2.198664 18.617544C2.806032 18.099696 3.3197760000000005 17.662344 3.34032 17.645688C3.3726240000000005 17.61948 3.4086240000000005 17.661744 3.60588 17.957688C4.329216 19.042824 5.26224 19.910352 6.3772079999999995 20.534472C7.308479999999999 21.055775999999998 8.30868 21.37584 9.42 21.5082C9.807672 21.554376 10.793568 21.547584 11.28 21.495383999999998C13.420032 21.265752 15.251832000000002 20.570784 17.268 19.223616C20.932968 16.774704 23.11428 13.043496000000001 23.5914 8.407248000000001C23.751216 6.854256 23.70492 5.118432 23.46264 3.5800560000000003C23.418216 3.298032 23.38764 3.177504 23.331672 3.063816C23.234232 2.865888 23.067888 2.704464 22.850687999999998 2.5970880000000003C22.689648000000002 2.51748 22.652231999999998 2.508768 22.442688 2.502168C22.265448 2.496576 22.18332 2.50512 22.088160000000002 2.539032M22.130088 3.649536C20.437728 4.627872 18.518736 5.25804 16.548000000000002 5.482632000000001C16.012032 5.543736 15.305616 5.574336000000001 14.703384 5.562552C12.609576 5.521584 10.757784 5.76768 9.156 6.299832C8.077224 6.658200000000001 7.131648 7.130832 6.466704000000001 7.644C5.4858720000000005 8.400936 4.939223999999999 8.952864 4.47 9.66C3.654696 10.888632 3.2536320000000005 12.278640000000001 3.296232 13.728C3.316824 14.428656 3.395712 14.930040000000002 3.586872 15.575496000000001C3.7247999999999997 16.041192000000002 3.6792000000000002 16.0272 4.04412 15.715632C4.387296 15.422664 4.7898 15.116807999999999 5.340288 14.730696C7.59168 13.15164 10.141152 11.930496 12.773328 11.170463999999999C13.145616 11.062968 13.250904 11.041104 13.335192000000001 11.053728C13.479792 11.075424 13.643568 11.18556 13.702248 11.300568C13.813944000000001 11.51952 13.787448 11.72148 13.624872 11.8902C13.536287999999999 11.982096 13.49328 12.004104 13.272 12.07056C11.8962 12.483888 11.118744 12.762936 10.093128 13.21152C8.408856 13.948152 6.807312 14.878079999999999 5.34 15.971328C5.050416 16.187088 4.37316 16.745448 4.200264 16.910976C4.168728 16.941167999999998 4.17276 16.95996 4.234392 17.0706C4.478376 17.508623999999998 4.924848 18.080112 5.363592000000001 18.516000000000002C6.456528 19.601832 7.832784 20.275392 9.396 20.489544C9.792912000000001 20.543928 10.729392 20.542704 11.232000000000001 20.487168C13.129895999999999 20.277456 14.734128 19.674552000000002 16.556448 18.486072C18.212808 17.405856 19.634832000000003 15.963192000000001 20.607744 14.376C21.764712000000003 12.488520000000001 22.418568 10.384992 22.633128000000003 7.86C22.676784 7.346472 22.68924 6.18516 22.657536 5.5878C22.612008 4.730208 22.464216 3.503376 22.406568 3.504528C22.391952 3.504816 22.267536 3.5700719999999997 22.130088 3.649536" stroke="none" fill="currentColor" fill-rule="evenodd" stroke-width="0.024"></path></svg>