<svg viewBox="0 0 121 121" fill="none" xmlns="http://www.w3.org/2000/svg"><path d="M105.708 21.043L61.3289 82.188H65.0889L107.708 23.467C107.062 22.642 106.395 21.833 105.708 21.043ZM114.631 34.649L80.1269 82.188H83.8869L116.051 37.873C115.607 36.782 115.135 35.707 114.631 34.649ZM120.388 57.798C120.318 56.231 120.19 54.68 120.004 53.146L98.9259 82.188H102.686L120.388 57.798ZM25.4019 79.946C24.2079 79.946 23.2399 80.914 23.2399 82.108C23.2399 83.302 24.2079 84.271 25.4019 84.271C26.5959 84.271 27.5639 83.302 27.5639 82.108C27.5639 80.914 26.5959 79.946 25.4019 79.946ZM22.7439 88.73L14.7739 99.709C17.4509 102.814 20.4399 105.641 23.6919 108.144L37.7819 88.73H22.7439ZM41.5419 88.73L26.1489 109.939C29.4989 112.258 33.0939 114.249 36.8909 115.858L56.5809 88.73H41.5419ZM60.3399 88.73L39.8169 117.007C43.8929 118.486 48.1729 119.539 52.6049 120.107L75.3789 88.73H60.3399ZM97.9369 88.73L76.3809 118.43C92.4039 114.001 105.74 103.106 113.409 88.73H97.9369ZM64.2299 0.488976C62.9399 0.405976 61.6409 0.359978 60.3309 0.359978C56.2559 0.359978 52.2759 0.767978 48.4289 1.53998L0.611938 67.421C1.22994 72.793 2.55394 77.95 4.49194 82.796L64.2299 0.488976ZM79.1389 88.73L56.1159 120.451C57.5089 120.547 58.9139 120.6 60.3309 120.6C64.2699 120.6 68.1209 120.217 71.8499 119.493L94.1779 88.73H79.1389ZM7.25694 88.73C8.86094 91.738 10.7099 94.596 12.7839 97.272L18.9839 88.73H7.25694ZM5.92294 86.078C9.97894 86.047 15.4119 84.572 18.3719 82.194C21.1219 79.986 22.6219 78.1 25.3969 78.1C25.8449 78.1 26.2579 78.126 26.6469 78.171L80.5819 3.85998C76.4919 2.39698 72.1979 1.36298 67.7529 0.815979L5.90094 86.034C5.90794 86.049 5.91594 86.064 5.92294 86.078ZM94.2929 10.869C90.9309 8.56297 87.3239 6.58898 83.5169 4.99698L29.7129 79.127C32.2019 80.471 33.5789 82.656 37.8459 82.656C40.2559 82.656 43.3179 81.103 46.3349 76.945L94.2929 10.869ZM43.8699 2.64098L0.256943 62.73C0.229943 61.983 0.210938 61.234 0.210938 60.48C0.210938 32.984 18.6689 9.79998 43.8699 2.64098Z" fill="#231F20"/></svg>