<svg xmlns="http://www.w3.org/2000/svg" viewBox="0 0 24 24"><path d="M10.133208 3.5387760000000004C9.885888 3.59868 9.650976 3.7374960000000006 9.443688000000002 3.946272C9.104808 4.2875760000000005 9 4.5720719999999995 9 5.150808L9 5.493936 7.2540000000000004 5.502168C5.738208 5.509296 5.492184 5.515416 5.388 5.548608000000001C4.8636 5.71572 4.488504 6.081984 4.3480799999999995 6.564C4.3211520000000005 6.6564000000000005 4.134576 7.601400000000001 3.933456 8.664C3.732336 9.7266 3.556128 10.608191999999999 3.5418960000000004 10.623096C3.5276400000000003 10.638 2.8842 10.895304 2.112 11.194848C1.3398 11.494416000000001 0.666432 11.767944 0.6156240000000001 11.802672000000001C0.461928 11.907744000000001 0.250128 12.159096 0.157776 12.346008000000001C-0.005496 12.67644 -0.002184 12.616655999999999 0.00528 15.091872L0.012 17.316 0.06564 17.473728C0.21271199999999998 17.90616 0.577512 18.268895999999998 1.020912 18.4236C1.2075120000000001 18.488688 1.2276960000000001 18.490560000000002 1.880712 18.503136L2.5494 18.516000000000002 2.6058239999999997 18.711552C2.7627360000000003 19.255488 3.132432 19.757592 3.609888 20.07528C4.022088 20.349552000000003 4.39116 20.46816 4.896 20.488608C5.389824 20.5086 5.7529200000000005 20.426592 6.1825920000000005 20.198040000000002C6.780048000000001 19.880208 7.24536 19.298832 7.4088 18.666L7.450632 18.504 11.999304 18.504192L16.548000000000002 18.50436 16.602144 18.702192C16.808856000000002 19.457256 17.43312 20.10708 18.20532 20.371032C18.749807999999998 20.557128000000002 19.40868 20.533224 19.964064 20.307216C20.635896 20.033808 21.191232 19.414991999999998 21.393312 18.714576L21.4506 18.516000000000002 22.119287999999997 18.503136C22.772304000000002 18.490560000000002 22.792488000000002 18.488688 22.979088 18.4236C23.319024 18.304992 23.58036 18.096168 23.784936000000002 17.779632C23.87988 17.632752 23.976 17.374776 23.976 17.266896C23.976 17.236056 23.98704 17.204016 24.000504 17.195688C24.017136 17.185392 24.02052 15.197591999999998 24.010991999999998 11.008272C23.995464000000002 4.173768 24.007896 4.65444 23.837832000000002 4.313904C23.708952 4.055904 23.426376 3.7809359999999996 23.158656 3.653088C23.0472 3.59988 22.89876 3.54456 22.828824 3.53016C22.629816 3.489216 10.303296 3.497592 10.133208 3.5387760000000004M10.269768 4.567848C10.211592 4.5985439999999995 10.131599999999999 4.66968 10.092 4.725912L10.02 4.828128 10.008000000000001 10.484064C9.996960000000001 15.690912 9.992832 16.14576 9.956232 16.212504C9.855504 16.396104 9.7008 16.492536 9.503952 16.494384C9.330912 16.496015999999997 9.18684 16.420896 9.085056 16.275936L9.012 16.171872 9.00564 13.8336L8.999304 11.495327999999999 6.53364 11.501664L4.0680000000000005 11.508000000000001 2.628 12.070295999999999C1.836 12.379560000000001 1.167576 12.649560000000001 1.142616 12.670296C1.117656 12.691032 1.077384 12.751199999999999 1.053144 12.804C1.0132079999999999 12.890952000000002 1.0090080000000001 12.975167999999998 1.008528 13.698L1.008 14.496 1.554 14.496528000000001C2.171064 14.497128000000002 2.226312 14.509176 2.3718239999999997 14.674895999999999C2.4714 14.788319999999999 2.496 14.852712000000002 2.496 15C2.496 15.147288 2.4714 15.211680000000001 2.3718239999999997 15.325104000000001C2.226264 15.490872 2.171184 15.502872 1.552848 15.503471999999999L1.0056960000000001 15.504 1.012848 16.338L1.02 17.172 1.079472 17.256C1.239768 17.482392 1.303608 17.49888 1.9886640000000002 17.490696L2.549352 17.484 2.6058000000000003 17.288448C2.762808 16.744416 3.1324560000000004 16.242383999999998 3.609888 15.924719999999999C4.022088 15.650447999999999 4.39116 15.531839999999999 4.896 15.511392C5.389824 15.4914 5.7529200000000005 15.573408000000002 6.1825920000000005 15.80196C6.780048000000001 16.119792 7.24536 16.701168 7.4088 17.334L7.450632 17.496 11.999304 17.495808L16.548000000000002 17.49564 16.602984000000003 17.297808C16.81476 16.535976 17.431752 15.893400000000002 18.20532 15.628968C18.768816 15.436368 19.484376 15.471768 20.030136000000002 15.719232C20.67684 16.012464 21.19944 16.61364 21.394199999999998 17.288448L21.450648 17.484 22.011336 17.490696C22.696392 17.49888 22.760232 17.482392 22.920528 17.256L22.98 17.172 22.98 11.000064L22.98 4.828128 22.908 4.725912C22.8684 4.66968 22.788408 4.5985439999999995 22.730232 4.567848L22.62444 4.5120000000000005 16.5 4.5120000000000005L10.37556 4.5120000000000005 10.269768 4.567848M5.58 6.549504000000001C5.466672 6.601968 5.365728 6.703776 5.327952 6.8036639999999995C5.313072 6.843096000000001 5.150496 7.663896 4.966728 8.627664C4.782935999999999 9.591456 4.62684 10.404288000000001 4.619832 10.434000000000001L4.607088 10.488 6.803544 10.488L9 10.488 9 8.496L9 6.5040000000000004 7.338 6.504528C5.771496000000001 6.505032 5.67048 6.507599999999999 5.58 6.549504000000001M0.011496 15.012C0.011496 16.2264 0.014424 16.726728 0.018000000000000002 16.123824000000003C0.021552 15.520920000000002 0.021552 14.52732 0.018000000000000002 13.915824C0.014424 13.304328 0.011496 13.7976 0.011496 15.012M4.626912000000001 16.549224000000002C4.3788 16.609392 4.1578800000000005 16.740408000000002 3.9457440000000004 16.953167999999998C3.7233599999999996 17.176248 3.5982239999999996 17.399231999999998 3.5400959999999997 17.676000000000002C3.468432 18.017352 3.510888 18.360216 3.6634320000000002 18.672C3.840648 19.034184 4.247592 19.359863999999998 4.637904000000001 19.451904C4.832712 19.49784 5.183736000000001 19.497696 5.36496 19.45164C5.874168 19.322208 6.295416 18.910728 6.445752 18.396C6.5028 18.200688 6.5028 17.799312 6.445752 17.604C6.295416 17.089272 5.874168 16.677792 5.36496 16.54836C5.188656 16.503552000000003 4.813536 16.503984000000003 4.626912000000001 16.549224000000002M18.624 16.549824C18.122304 16.681584 17.704824000000002 17.092824 17.553744 17.604C17.495856 17.799888000000003 17.495856 18.200112 17.553744 18.396C17.706408000000003 18.912576 18.126024 19.322256000000003 18.63504 19.45164C18.817439999999998 19.498008000000002 19.167648 19.497744 19.365528 19.451112C19.747488 19.361064 20.160096 19.029528000000003 20.336664 18.670728C20.546352 18.244680000000002 20.546352 17.755319999999998 20.336664 17.329272C20.157216000000002 16.96464 19.752336 16.640112 19.362096 16.548096C19.173096 16.503528000000003 18.796896 16.504416 18.624 16.549824" stroke="none" fill="currentColor" fill-rule="evenodd" stroke-width="0.024"></path></svg>