<svg xmlns="http://www.w3.org/2000/svg" viewBox="0 0 24 24"><path d="M10.884 0.025464C8.055048000000001 0.306504 5.505408 1.507272 3.5183520000000006 3.4943520000000006C2.042856 4.969824 1.006848 6.739248000000001 0.435216 8.76C-0.040223999999999996 10.440696 -0.128448 12.362424 0.188952 14.124912C0.699408 16.959456 2.237904 19.53648 4.5 21.346056C5.461320000000001 22.115064 6.421320000000001 22.674672 7.5600000000000005 23.129832C8.986536000000001 23.700024 10.432416000000002 23.9754 12 23.9754C14.119464 23.9754 16.130304 23.445287999999998 17.94 22.409496C20.29536 21.061392 22.14168 18.946272 23.140439999999998 16.452C23.597784 15.30984 23.900136000000003 13.997496000000002 23.965704000000002 12.870000000000001C23.975112 12.708288 23.992079999999998 12.576 24.003408 12.576C24.014736000000003 12.576 24.023832000000002 12.292512 24.02364 11.946C24.023424000000002 11.599512 24.014304 11.330136 24.003336 11.34744C23.991623999999998 11.365896000000001 23.976648 11.266848 23.967048 11.10744C23.8644 9.401496 23.301047999999998 7.561176 22.403112 5.99844C20.657256 2.9600880000000003 17.627376 0.8121120000000001 14.196 0.180168C13.404576 0.034416 13.215696 0.019056 12.120000000000001 0.011256C11.559000000000001 0.007272 11.0028 0.01368 10.884 0.025464M11.244 1.0095120000000002C9.760584 1.125744 8.516472 1.456704 7.228464 2.077776C6.094488 2.6245920000000003 5.217624000000001 3.2405039999999996 4.311792 4.126536C3.071016 5.34012 2.143008 6.810672 1.5921839999999998 8.436C1.0491840000000001 10.038288 0.8821920000000001 11.695896000000001 1.094136 13.38C1.337712 15.315719999999999 2.121696 17.199192 3.321864 18.732C3.846408 19.401912 4.582968 20.138688 5.244 20.654664C6.8453040000000005 21.90456 8.694528 22.656168 10.8 22.912824C11.297136 22.973424 12.702863999999998 22.973424 13.200000000000001 22.912824C15.777984000000002 22.598568 17.991888 21.533136000000002 19.773192 19.749552C20.929824 18.591432 21.764136 17.285832000000003 22.328112 15.751344000000001C23.047392 13.79436 23.187096 11.64024 22.7286 9.576C22.360608 7.919256 21.551856 6.265272 20.488319999999998 4.994472C20.346216000000002 4.824672 20.316959999999998 4.80012 20.30244 4.838472C20.203632 5.099832 19.358016 7.173672000000001 19.318296 7.25208C19.142568 7.599096 18.813984 7.976088 18.507216 8.18268C18.302664 8.32044 18.025008 8.456280000000001 17.820384 8.518752C17.658576 8.568144 17.1504 8.645736 15.912 8.810184C15.5886 8.85312 15.315144 8.895792 15.304319999999999 8.905007999999999C15.293520000000001 8.914200000000001 15.404256000000002 9.160752 15.550439999999998 9.45288L15.816216 9.984 16.07796 9.984C16.597944000000002 9.984 16.930752 10.18068 17.114784 10.596696C17.184192000000003 10.753632 17.201616 11.039112000000001 17.152152 11.209200000000001C17.131248 11.281128 16.754544 12.0636 16.315056 12.948L15.516 14.556000000000001 15.501216000000001 15.984C15.49212 16.864056 15.476568 17.453447999999998 15.460704000000002 17.52C15.336312000000001 18.041591999999998 15.10572 18.471816 14.7726 18.803784C14.546736000000001 19.028856 12.624839999999999 20.614104 12.504 20.674992C12.181608 20.837471999999998 11.768400000000002 20.803944 11.475216000000001 20.591568C11.382456000000001 20.524368 9.978384 18.863184 9.690456000000001 18.48C9.369576 18.052944 9.191952 17.52384 9.192024 16.99536C9.192072 16.715688 9.225672000000001 16.517664 9.37212 15.933888000000001L9.484032000000001 15.487752 9.109944 14.739888L8.735856 13.992 7.877928000000001 13.991976000000001C6.911207999999999 13.991952000000001 6.60048 13.970376000000002 6.295488000000001 13.882079999999998C5.559384 13.66896 4.930728 13.096872 4.669512 12.402408000000001C4.63608 12.313536 4.450584 11.724936 4.257288 11.094408C4.014552 10.302528 3.9022319999999997 9.89964 3.89412 9.791616C3.880416 9.609312 3.9320640000000004 9.37572 4.018584 9.2286C4.082784 9.119472 5.751168 7.17984 5.996568 6.929064C6.43068 6.4854 7.005528 6.231096000000001 7.645272 6.199631999999999C7.97496 6.183432 8.007408 6.18792 8.904 6.373176L9.540000000000001 6.5046 11.268 6.4982880000000005L12.996 6.492 12.994871999999999 5.832C12.993599999999999 5.08224 12.980064 4.984416 12.835944000000001 4.68312C12.761544 4.527624 12.697848 4.439616 12.553920000000002 4.293552C12.389832000000002 4.127016 12.337272 4.090656 12.106008 3.983688C11.648376 3.772008 11.541816 3.710832 11.421719999999999 3.590808C11.054208 3.223512 11.06028 2.580552 11.434824 2.206032C11.512248000000001 2.128584 11.80452 1.9469520000000002 12.433344000000002 1.585488C12.922344 1.3044 13.318704 1.070688 13.314143999999999 1.066152C13.309608 1.0616160000000001 13.108608 1.0412640000000002 12.867503999999998 1.020936C12.410976000000002 0.982464 11.656968 0.9771600000000001 11.244 1.0095120000000002M13.492656 2.136168C12.762623999999999 2.556 12.174024 2.904696 12.184656 2.911056C12.195288 2.917416 12.298848 2.961696 12.414768 3.009504C13.040304 3.267408 13.493160000000001 3.6980640000000005 13.777248 4.305144C13.967352 4.711392 13.976208 4.7736719999999995 13.986216 5.774952C13.996248000000001 6.7787999999999995 13.991280000000001 6.818904 13.827696 7.056C13.777608 7.1286 13.669775999999999 7.238904 13.588056 7.3011360000000005C13.315895999999999 7.508424 13.435944000000001 7.4975760000000005 11.316 7.50636L9.444 7.514088 8.748 7.367039999999999C8.3652 7.28616 7.958976000000001 7.214088 7.845288 7.206864C7.499832 7.1849039999999995 7.13808 7.294824000000001 6.855816 7.507536000000001C6.764016 7.576704000000001 4.983504 9.596568000000001 4.913328 9.71112C4.897032 9.737736 5.514384 11.793264 5.61384 12.043584C5.752152000000001 12.391608 6.046656 12.694272 6.396 12.847415999999999C6.657336000000001 12.961992 6.7000079999999995 12.965856 7.8725760000000005 12.981288L8.989176 12.996 9.156576 13.078296C9.463152000000001 13.228968 9.518112 13.306032 9.9918 14.249376000000002C10.22232 14.708424 10.428264 15.142655999999999 10.449456 15.214368C10.513608 15.431328 10.498608 15.571488 10.344 16.2C10.185264 16.845288 10.167672000000001 17.031384 10.237368 17.328C10.312152000000001 17.646192000000003 10.39296 17.76336 11.247408 18.792C11.69148 19.3266 12.059592 19.762415999999998 12.065448 19.760472C12.097704 19.749816 13.886304 18.252888000000002 14.024351999999999 18.121008C14.205863999999998 17.947608 14.343672000000002 17.733864 14.427312 17.496C14.481552 17.341704 14.482296 17.323656 14.4954 15.852L14.508624 14.364 14.58696 14.189808C14.630040000000001 14.094 14.999808 13.338984000000002 15.408648000000001 12.511992C15.817488 11.685 16.152 11.004696000000001 16.152 11.000184C16.152 10.995696 16.073688 10.991928 15.978 10.991808C15.571104000000002 10.9914 15.314015999999999 10.900152 15.096 10.678752C14.980775999999999 10.561752 14.92188 10.459512 14.632536 9.874344C14.260632 9.12216 14.224079999999999 9.00612 14.274192000000001 8.736672C14.336015999999999 8.404128 14.527032 8.14596 14.815871999999999 8.004432C14.984064 7.922064000000001 15.0144 7.916544 16.14 7.764C16.7736 7.678152 17.349432 7.596191999999999 17.419632 7.581912C17.489832000000003 7.567608 17.642256000000003 7.508376 17.758319999999998 7.450272C18.010752 7.323887999999999 18.244056 7.106736 18.36948 6.881352000000001C18.4332 6.766896 19.108608 5.124744000000001 19.514136 4.098312L19.55904 3.984624 19.304976 3.763128C18.212328 2.810472 17.190528 2.1954480000000003 15.846863999999998 1.681704C15.510264 1.5530160000000002 14.916216 1.366392 14.856 1.370424C14.8362 1.371744 14.222688 1.7163359999999999 13.492656 2.136168M0.010488 11.976C0.010488 12.325800000000001 0.013848 12.468912000000001 0.017928 12.294C0.022032000000000003 12.119088 0.022032000000000003 11.832912 0.017928 11.658C0.013848 11.483088 0.010488 11.6262 0.010488 11.976" stroke="none" fill="currentColor" fill-rule="evenodd" stroke-width="0.024"></path></svg>